# xmcd
#
# Track frame offsets:
# 150
# 19771
# 33564
# 48267
# 59794
# 75301
# 91313
# 111277
# 124756
# 139148
# 152188
# 175688
# 194559
# 213564
#
# Disc length: 2985 seconds
#
#
# Revision: 0
# Processed by: cddbd v1.4PL0 Copyright (c) Steve Scherf et al.
# Submitted via: FreeRIP 2.30 
#
DISCID=c40ba70e
DTITLE=Session Singers - Country Hits by Nashiville
DYEAR=2000
DGENRE=Country
TTITLE0=You Win My Love
TTITLE1=Daddy´s Money
TTITLE2=Check Yes or No
TTITLE3=So Much For Pretending
TTITLE4=I Like It, I love It
TTITLE5=My Maria
TTITLE6=Lonely Too Long
TTITLE7=The Fear of Being Alone
TTITLE8=Poor, Poor Pitiful Me
TTITLE9=Blue
TTITLE10=Go Rest High On That Mountain
TTITLE11=Any Man of Mine
TTITLE12=When You Say Nothing At All
TTITLE13=Sold
EXTD=
EXTT0=
EXTT1=
EXTT2=
EXTT3=
EXTT4=
EXTT5=
EXTT6=
EXTT7=
EXTT8=
EXTT9=
EXTT10=
EXTT11=
EXTT12=
EXTT13=
PLAYORDER=
